<?xml version="1.0" encoding="UTF-8"?><svg id="Layer_2" xmlns="http://www.w3.org/2000/svg" viewBox="0 0 251.57 147.85"><g id="Layer_1-2"><g><g><g><path d="M212.59,105.17c-6.55-23.48-22.46-43.45-43.92-55.13l16.52-34.3c31.92,16.7,55.33,46.07,64.54,80.95l-37.14,8.48Z" fill="#ffd200"/><path d="M185.87,17.8c15.19,8.17,28.29,19.09,38.99,32.5,10.69,13.41,18.43,28.63,23.02,45.28l-34.24,7.81c-6.76-22.82-22.23-42.25-43-53.98l15.23-31.62m-1.36-4.09l-17.81,36.98c22.04,11.54,38.54,32.25,44.82,56.27l40.05-9.14c-9.2-36.62-33.44-67.03-67.06-84.11h0Z" fill="#999"/></g><g><path d="M74.04,12.45C90.54,5.18,107.95,1.5,125.83,1.5s35.28,3.68,51.74,10.95l-16.52,34.3c-11.14-4.73-22.99-7.13-35.24-7.13s-24.09,2.4-35.25,7.13L74.04,12.45Z" fill="#ffd200"/><path d="M125.83,3c17.15,0,33.86,3.43,49.71,10.21l-15.23,31.62c-10.94-4.45-22.53-6.7-34.51-6.7s-23.55,2.25-34.51,6.7l-15.22-31.62c15.88-6.78,32.6-10.21,49.76-10.21m0-3c-18.31,0-36.62,3.9-53.81,11.71l17.81,36.99c11.35-5.03,23.43-7.58,35.97-7.58s24.64,2.55,35.97,7.58l17.82-36.99C162.44,3.9,144.14,0,125.83,0h0Z" fill="#999"/></g><g><path d="M1.84,96.47c2.08-7.86,4.93-15.56,8.48-22.93,12.11-25.15,31.48-45.18,56.08-58.01l16.54,34.32c-21.45,11.67-37.36,31.62-43.93,55.11L1.84,96.47Z" fill="#ffd200"/><path d="M65.72,17.58l15.24,31.64c-20.76,11.71-36.24,31.14-43.02,53.96L3.69,95.35c2.02-7.25,4.69-14.36,7.98-21.16,11.75-24.38,30.39-43.9,54.05-56.61m1.36-4.09C41.53,26.45,21.47,46.94,8.97,72.89c-3.83,7.94-6.84,16.24-8.97,24.7l40.07,9.15c6.3-24.01,22.8-44.72,44.84-56.25L67.08,13.49h0Z" fill="#999"/></g></g><path d="M201.33,130.18h-57.74c-1.56,0-2.83-1.27-2.83-2.83s1.27-2.83,2.83-2.83h54.86c-1.49-38.79-33.52-69.9-72.67-69.9S54.61,85.74,53.11,124.53h54.87c1.56,0,2.83,1.27,2.83,2.83s-1.27,2.83-2.83,2.83H50.23c-1.56,0-2.83-1.27-2.83-2.83,0-43.21,35.16-78.37,78.37-78.37s78.37,35.16,78.37,78.37c0,1.56-1.27,2.83-2.83,2.83Z" fill="#999"/><path d="M137.92,120.33l-6.64,7.11,12.49,11.61c1,.95,1.58,2.25,1.61,3.63,.01,1.4-.51,2.7-1.48,3.67-1,1-2.3,1.53-3.7,1.5-1.4-.01-2.68-.59-3.63-1.62l-10.95-12.73-11.87,12.7c-.96,1.02-2.29,1.62-3.66,1.65-1.31,.01-2.54-.47-3.46-1.38-.92-.92-1.41-2.15-1.38-3.46,.01-1.38,.62-2.71,1.65-3.67l13.17-12.3-1.09-1.26c-1.44,.17-2.42,.1-3.05-.23-2.23-1.09-7.2-6.64-9.78-10.13-7.43-10.04-4.03-15.02-3.9-15.21,.14-.18,.34-.3,.55-.31,.21-.01,.44,.06,.58,.21l19.71,19.71,2.36,2.19,7.3-6.82c-.64-2.46,.07-5.04,1.88-6.85l8.35-8.35c.28-.28,.72-.28,1,0l1.38,1.37-6.27,6.27,1,.99,6.26-6.26,1.7,1.7-6.26,6.26,1,1,6.26-6.26,1.7,1.7-6.26,6.26,1,1,6.26-6.26,1.37,1.37c.28,.27,.28,.72,0,.99l-8.35,8.36c-1.82,1.81-4.41,2.5-6.85,1.86Z" fill="#999"/><g><circle cx="110.71" cy="67.17" r="2.7" fill="#999"/><circle cx="140.86" cy="67.17" r="2.7" fill="#999"/></g><path d="M125.78,89.24c-5.33,0-9.31-2.27-11.83-6.75-.38-.68-.14-1.54,.54-1.92,.68-.38,1.54-.14,1.92,.54,2.01,3.57,5.08,5.31,9.37,5.31,5.81,0,8.34-3.29,9.34-5.25,.35-.7,1.2-.98,1.9-.62,.7,.35,.98,1.2,.62,1.9-1.29,2.54-4.54,6.81-11.86,6.81Z" fill="#999"/><path d="M128.56,75.48c-.39,0-.71-.32-.71-.71,0-.65-1.43-2.11-2.07-2.11s-2.07,1.46-2.07,2.11c0,.39-.32,.71-.71,.71s-.71-.32-.71-.71c0-1.42,2.09-3.53,3.49-3.53s3.49,2.11,3.49,3.53c0,.39-.32,.71-.71,.71Z" fill="#999"/></g></g></svg>