<?xml version="1.0" encoding="UTF-8"?><svg id="Layer_2" xmlns="http://www.w3.org/2000/svg" viewBox="0 0 463.86 463.86"><g id="Layer_1-2"><g><g><rect x="117.19" y="266.19" width="328" height="30" transform="translate(-116.47 281.19) rotate(-45)" fill="#2a4f4c"/><rect x="145.24" y="294.24" width="328" height="30" transform="translate(-128.09 309.24) rotate(-45)" fill="#2a4f4c"/><rect x="173.29" y="322.29" width="328" height="30" transform="translate(-139.71 337.29) rotate(-45)" fill="#2a4f4c"/></g><g><rect x="34.26" y="205.31" width="30" height="109.33" transform="translate(-169.4 110.98) rotate(-45)" fill="#2a4f4c"/><rect x="62.31" y="177.26" width="30" height="109.33" transform="translate(-141.36 122.6) rotate(-45)" fill="#2a4f4c"/><rect x="90.36" y="149.21" width="30" height="109.33" transform="translate(-113.31 134.22) rotate(-45)" fill="#2a4f4c"/></g><g><rect x="188.88" y="50.69" width="30" height="109.33" transform="translate(-14.78 175.02) rotate(-45)" fill="#2a4f4c"/><rect x="216.93" y="22.64" width="30" height="109.33" transform="translate(13.26 186.64) rotate(-45)" fill="#2a4f4c"/><rect x="244.98" y="-5.4" width="30" height="109.33" transform="translate(41.31 198.26) rotate(-45)" fill="#2a4f4c"/></g><polygon points="386.55 154.62 154.62 386.55 77.31 309.24 154.62 231.93 77.31 154.62 154.62 77.31 231.93 154.62 309.24 77.31 386.55 154.62" fill="none"/></g></g></svg>